<svg width="157" height="37" viewBox="0 0 157 37" fill="none" xmlns="http://www.w3.org/2000/svg">
<mask id="mask0_59_408" style="mask-type:luminance" maskUnits="userSpaceOnUse" x="0" y="0" width="157" height="37">
<path d="M156.721 0.822266H0.438477V36.8877H156.721V0.822266Z" fill="white"/>
</mask>
<g mask="url(#mask0_59_408)">
<path d="M18.0248 0.822266C8.59468 0.822266 0.950195 8.2871 0.950195 17.4957C0.950195 26.7042 8.59468 34.1691 18.0248 34.1691C27.455 34.1691 35.0994 26.7042 35.0994 17.4957C35.0994 8.2871 27.455 0.822266 18.0248 0.822266ZM19.5565 28.4635C19.5504 28.4635 19.5465 28.4635 19.5405 28.4635C19.5106 28.4635 19.4825 28.4537 19.4606 28.4343C19.4345 28.4128 19.4205 28.3795 19.4205 28.3463V23.7148C19.4205 23.66 19.4586 23.6132 19.5126 23.6015C21.842 23.0665 23.6997 21.2505 24.2496 18.9738C24.2616 18.9211 24.3095 18.884 24.3655 18.884H29.1066C29.1405 18.884 29.1745 18.8977 29.1965 18.9231C29.2186 18.9484 29.2305 18.9816 29.2246 19.0168C28.5567 23.9256 24.5795 27.8094 19.5565 28.4635ZM29.1126 16.2128C29.1106 16.2128 29.1086 16.2128 29.1066 16.2128H24.3635C24.3075 16.2128 24.2595 16.1757 24.2476 16.1229C23.5656 13.2916 21.0161 11.3156 18.0487 11.3156C14.5274 11.3156 11.6641 14.1118 11.6641 17.5503C11.6641 20.448 13.6877 22.9377 16.5871 23.6034C16.6411 23.6151 16.6791 23.662 16.6791 23.7166V28.3483C16.6791 28.3815 16.665 28.4128 16.6391 28.4362C16.617 28.4557 16.5891 28.4654 16.559 28.4654C16.5531 28.4654 16.5491 28.4654 16.5431 28.4654C10.9662 27.7371 6.76103 23.0451 6.76103 17.5523C6.76103 11.4738 11.826 6.52781 18.0487 6.52781C23.6637 6.52781 28.4587 10.6186 29.2206 16.0469C29.2285 16.0624 29.2325 16.0801 29.2325 16.0976C29.2325 16.1601 29.1785 16.2128 29.1126 16.2128Z" fill="#344169"/>
<path d="M44.9434 17.5213C44.9434 15.975 45.2433 14.5008 45.8452 13.0988C46.4471 11.6968 47.265 10.4862 48.3026 9.46689C49.3405 8.44763 50.5883 7.63534 52.05 7.03004C53.5097 6.42667 55.0613 6.12402 56.705 6.12402C58.3488 6.12402 59.8904 6.42863 61.3302 7.03784C62.7699 7.64706 64.0356 8.49839 65.1234 9.5899L62.6279 12.3314C61.0842 10.5721 59.1086 9.69144 56.7031 9.69144C55.2674 9.69144 53.9516 10.0488 52.7538 10.7654C51.5561 11.482 50.6183 12.4407 49.9404 13.6435C49.2625 14.8464 48.9226 16.1507 48.9226 17.5507C48.9226 18.9625 49.2726 20.2629 49.9704 21.452C50.6682 22.6411 51.6161 23.5823 52.8139 24.2716C54.0116 24.9629 55.3194 25.3085 56.735 25.3085C57.7748 25.3085 58.8067 25.0839 59.8304 24.6348C60.8542 24.1856 61.7281 23.598 62.4519 22.8736L64.7974 25.5994C63.7077 26.6246 62.4778 27.427 61.1062 28.0071C59.7344 28.5869 58.2767 28.8778 56.733 28.8778C54.6055 28.8778 52.6398 28.3818 50.8362 27.3919C49.0326 26.4018 47.6009 25.0332 46.537 23.2875C45.4752 21.5418 44.9434 19.6205 44.9434 17.5213ZM67.3969 28.4854V6.50087H71.1382V15.4242C71.5041 15.1529 71.8141 14.9421 72.0659 14.7917C72.318 14.6413 72.7079 14.491 73.2318 14.3407C73.7557 14.1903 74.3256 14.1142 74.9394 14.1142C75.7513 14.1142 76.5032 14.2352 77.1969 14.4773C77.8908 14.7194 78.5127 15.0806 79.0686 15.5649C79.6224 16.0492 80.0564 16.6994 80.3684 17.5155C80.6802 18.3318 80.8363 19.2768 80.8363 20.3508V28.4854H77.0929V20.9542C77.0929 18.7339 76.0971 17.6229 74.1076 17.6229C72.128 17.6229 71.1382 18.7145 71.1382 20.8956V28.4834H67.3969V28.4854ZM84.0896 11.359C83.6336 10.9138 83.4057 10.369 83.4057 9.72073C83.4057 9.07246 83.6336 8.52964 84.0896 8.08834C84.5455 7.64901 85.1094 7.42836 85.7833 7.42836C86.4472 7.42836 87.001 7.64511 87.4469 8.08053C87.8928 8.51597 88.1148 9.06269 88.1148 9.71878C88.1148 10.3768 87.8928 10.9255 87.4469 11.3649C87.001 11.8042 86.4472 12.0249 85.7833 12.0249C85.1094 12.0268 84.5435 11.8042 84.0896 11.359ZM83.8957 28.4854V14.3757H87.6369V28.4854H83.8957ZM91.0103 35.997V14.3757H94.7514V15.4242C95.8512 14.5515 97.1871 14.1142 98.7607 14.1142C100.884 14.1142 102.69 14.8308 104.178 16.2621C105.666 17.6933 106.409 19.435 106.409 21.4872C106.409 22.8208 106.071 24.0549 105.393 25.1893C104.716 26.3238 103.789 27.222 102.614 27.8839C101.438 28.5458 100.154 28.8759 98.7607 28.8759C97.1871 28.8759 95.8492 28.4404 94.7514 27.5716V35.997H91.0103ZM94.7535 21.661C94.8034 22.6743 95.2154 23.5453 95.9932 24.2736C96.7711 25.0019 97.6929 25.3671 98.7626 25.3671C99.8525 25.3671 100.787 24.9844 101.57 24.217C102.352 23.4496 102.744 22.5396 102.744 21.4891C102.744 20.4465 102.352 19.5424 101.57 18.775C100.789 18.0076 99.8525 17.6249 98.7626 17.6249C97.6929 17.6249 96.7711 17.992 95.9932 18.7242C95.2154 19.4585 94.8034 20.3254 94.7535 21.3291V21.661ZM108.549 35.997V14.3757H112.29V15.4242C113.39 14.5515 114.725 14.1142 116.299 14.1142C118.423 14.1142 120.228 14.8308 121.716 16.2621C123.203 17.6933 123.948 19.435 123.948 21.4872C123.948 22.8208 123.61 24.0549 122.932 25.1893C122.255 26.3238 121.328 27.222 120.152 27.8839C118.977 28.5458 117.692 28.8759 116.299 28.8759C114.725 28.8759 113.388 28.4404 112.29 27.5716V35.997H108.549ZM112.292 21.661C112.342 22.6743 112.753 23.5453 113.532 24.2736C114.309 25.0019 115.231 25.3671 116.301 25.3671C117.391 25.3671 118.326 24.9844 119.109 24.217C119.891 23.4496 120.282 22.5396 120.282 21.4891C120.282 20.4465 119.891 19.5424 119.109 18.775C118.327 18.0076 117.391 17.6249 116.301 17.6249C115.231 17.6249 114.309 17.992 113.532 18.7242C112.753 19.4585 112.342 20.3254 112.292 21.3291V21.661ZM125.391 21.5673C125.391 20.5714 125.567 19.6225 125.919 18.7184C126.271 17.8143 126.763 17.0215 127.397 16.3401C128.031 15.6587 128.821 15.1178 129.764 14.7156C130.711 14.3152 131.743 14.1142 132.86 14.1142C134.245 14.1142 135.498 14.452 136.618 15.1295C137.735 15.807 138.602 16.7033 139.216 17.8202C139.83 18.937 140.137 20.1575 140.137 21.4813C140.137 21.8972 140.106 22.2839 140.047 22.6411H129.029C129.246 23.5256 129.708 24.2325 130.417 24.7617C131.124 25.2908 132.002 25.5545 133.052 25.5545C133.745 25.5545 134.407 25.4256 135.042 25.166C135.676 24.9062 136.196 24.5157 136.601 23.9963L139.154 25.9763C138.5 26.8802 137.635 27.5871 136.556 28.1027C135.476 28.6163 134.319 28.8739 133.08 28.8739C131.654 28.8739 130.352 28.5557 129.174 27.9172C127.997 27.2786 127.07 26.4 126.397 25.2772C125.73 24.1584 125.391 22.9204 125.391 21.5673ZM129.165 19.9583H136.366C136.259 19.2437 135.867 18.6442 135.193 18.1599C134.52 17.6777 133.734 17.4356 132.832 17.4356C131.97 17.4356 131.214 17.666 130.561 18.1247C129.907 18.5837 129.44 19.1949 129.165 19.9583ZM142.464 28.4854V14.3757H146.205V15.4242C146.897 14.9206 147.643 14.5749 148.441 14.3915C149.239 14.2078 150.344 14.1142 151.76 14.1142V17.6229C150.82 17.6229 150.015 17.6757 149.346 17.7831C148.679 17.8885 148.141 18.037 147.735 18.2244C147.329 18.4118 147.013 18.6715 146.784 18.9995C146.558 19.3276 146.402 19.6732 146.325 20.0345C146.245 20.3958 146.207 20.839 146.207 21.3603V28.4854H142.464ZM151.76 8.5023C151.76 8.23284 151.814 7.97509 151.921 7.73102C152.031 7.48694 152.175 7.27605 152.356 7.10033C152.538 6.9246 152.754 6.784 153.003 6.6805C153.256 6.57703 153.518 6.52431 153.792 6.52431C154.066 6.52431 154.327 6.57703 154.578 6.6805C154.828 6.78595 155.042 6.92654 155.22 7.10227C155.402 7.27802 155.545 7.49084 155.651 7.73492C155.757 7.979 155.812 8.23284 155.812 8.49839C155.812 8.76395 155.757 9.01779 155.651 9.26383C155.543 9.50984 155.402 9.72073 155.219 9.89842C155.039 10.0761 154.824 10.2167 154.573 10.3241C154.324 10.4296 154.061 10.4823 153.786 10.4823C153.419 10.4823 153.083 10.3944 152.77 10.2187C152.46 10.0429 152.212 9.80274 152.031 9.49813C151.85 9.19352 151.76 8.86158 151.76 8.5023ZM152.142 8.5023C152.142 8.71709 152.184 8.92015 152.269 9.11543C152.356 9.31069 152.472 9.47861 152.619 9.62115C152.764 9.76368 152.938 9.87694 153.142 9.96285C153.346 10.0468 153.56 10.0898 153.788 10.0898C154.087 10.0898 154.366 10.0176 154.617 9.87499C154.87 9.73246 155.07 9.53914 155.213 9.29505C155.359 9.05294 155.432 8.78738 155.432 8.50035C155.432 8.20942 155.359 7.93799 155.213 7.69001C155.07 7.44203 154.87 7.24286 154.613 7.09642C154.36 6.94997 154.081 6.87578 153.782 6.87578C153.481 6.87578 153.205 6.94997 152.953 7.09642C152.702 7.24286 152.504 7.44008 152.359 7.69001C152.214 7.93799 152.142 8.20942 152.142 8.5023ZM152.992 9.6231V7.36978H153.696C153.784 7.36978 153.86 7.37174 153.922 7.37369C153.984 7.37564 154.053 7.38346 154.131 7.39322C154.211 7.40298 154.276 7.41665 154.327 7.43423C154.381 7.4518 154.435 7.47522 154.49 7.50842C154.544 7.53967 154.587 7.57871 154.621 7.62167C154.655 7.66463 154.681 7.71931 154.704 7.78569C154.724 7.85209 154.736 7.92628 154.736 8.00828C154.736 8.37147 154.545 8.59408 154.164 8.67999L154.736 9.62896H154.274L153.722 8.71124H153.377V9.62505H152.992V9.6231ZM153.377 8.37343H153.798C153.88 8.37343 153.951 8.36953 154.01 8.36171C154.067 8.35391 154.123 8.34023 154.177 8.3168C154.23 8.29532 154.27 8.26018 154.298 8.21331C154.326 8.16645 154.34 8.10787 154.34 8.03563C154.34 7.90676 154.296 7.81888 154.206 7.77593C154.115 7.73297 153.979 7.70954 153.798 7.70954H153.377V8.37343Z" fill="#344169"/>
</g>
</svg>
