<svg width="64" height="64" viewBox="0 0 64 64" fill="none" xmlns="http://www.w3.org/2000/svg">
<path d="M13.3333 61.3327C11.8667 61.3327 10.6116 60.8109 9.568 59.7673C8.52444 58.7238 8.00178 57.4678 8 55.9994V42.666C8 38.9771 9.30044 35.8331 11.9013 33.234C14.5022 30.6349 17.6462 29.3345 21.3333 29.3327H24V7.99935C24 6.53268 24.5227 5.27757 25.568 4.23402C26.6133 3.19046 27.8684 2.66779 29.3333 2.66602H34.6667C36.1333 2.66602 37.3893 3.18868 38.4347 4.23402C39.48 5.27935 40.0018 6.53446 40 7.99935V29.3327H42.6667C46.3556 29.3327 49.5004 30.6331 52.1013 33.234C54.7022 35.8349 56.0018 38.9789 56 42.666V55.9994C56 57.466 55.4782 58.722 54.4347 59.7673C53.3911 60.8127 52.1351 61.3345 50.6667 61.3327H13.3333ZM13.3333 55.9994H18.6667V47.9994C18.6667 47.2438 18.9227 46.6109 19.4347 46.1007C19.9467 45.5905 20.5796 45.3345 21.3333 45.3327C22.0889 45.3327 22.7227 45.5887 23.2347 46.1007C23.7467 46.6127 24.0018 47.2456 24 47.9994V55.9994H29.3333V47.9994C29.3333 47.2438 29.5893 46.6109 30.1013 46.1007C30.6133 45.5905 31.2462 45.3345 32 45.3327C32.7556 45.3327 33.3893 45.5887 33.9013 46.1007C34.4133 46.6127 34.6684 47.2456 34.6667 47.9994V55.9994H40V47.9994C40 47.2438 40.256 46.6109 40.768 46.1007C41.28 45.5905 41.9129 45.3345 42.6667 45.3327C43.4222 45.3327 44.056 45.5887 44.568 46.1007C45.08 46.6127 45.3351 47.2456 45.3333 47.9994V55.9994H50.6667V42.666C50.6667 40.4438 49.8889 38.5549 48.3333 36.9994C46.7778 35.4438 44.8889 34.666 42.6667 34.666H21.3333C19.1111 34.666 17.2222 35.4438 15.6667 36.9994C14.1111 38.5549 13.3333 40.4438 13.3333 42.666V55.9994ZM34.6667 29.3327V7.99935H29.3333V29.3327H34.6667Z" fill="black"/>
</svg>
