<svg width="256" height="55" viewBox="0 0 256 55" fill="none" xmlns="http://www.w3.org/2000/svg">
<g clip-path="url(#clip0_59_415)">
<path d="M78.1926 7.56055H64.8003C64.3735 7.56055 64 7.93402 64 8.36085V38.559C64 38.9858 64.3735 39.3593 64.8003 39.3593H78.246C88.8104 39.3593 95.6399 33.1169 95.6399 23.4599C95.6399 13.7496 88.8104 7.56055 78.1926 7.56055ZM78.1926 30.9294H73.604V15.9371H78.246C82.9946 15.9371 85.8758 18.7114 85.8758 23.4065C85.8758 27.1413 83.2614 30.9294 78.1926 30.9294Z" fill="#344169"/>
<path d="M155.078 15.7236C151.396 15.7236 148.355 17.7511 147.021 19.7785C146.061 17.1108 143.82 15.7236 140.405 15.7236C136.617 15.7236 133.789 17.6444 132.775 18.9249V17.1108C132.775 16.684 132.402 16.3105 131.975 16.3105H124.985C124.559 16.3105 124.185 16.684 124.185 17.1108V38.5056C124.185 38.9324 124.559 39.3059 124.985 39.3059H131.975C132.402 39.3059 132.775 38.9324 132.775 38.5056V25.1139C133.256 24.527 134.323 23.2998 136.243 23.2998C137.951 23.2998 138.858 24.2069 138.858 25.8608V38.5056C138.858 38.9324 139.231 39.3059 139.658 39.3059H146.648C147.075 39.3059 147.448 38.9324 147.448 38.5056V25.1139C147.928 24.527 148.995 23.2998 150.97 23.2998C152.624 23.2998 153.584 24.2602 153.584 25.8608V38.5056C153.584 38.9324 153.958 39.3059 154.384 39.3059H161.374C161.801 39.3059 162.174 38.9324 162.174 38.5056V22.6063C162.228 18.1779 159.667 15.7236 155.078 15.7236Z" fill="#344169"/>
<path d="M173.486 16.3105H166.496C166.07 16.3105 165.696 16.684 165.696 17.1109V38.5056C165.696 38.9325 166.07 39.3059 166.496 39.3059H173.486C173.913 39.3059 174.286 38.9325 174.286 38.5056V17.1109C174.286 16.684 173.913 16.3105 173.486 16.3105Z" fill="#344169"/>
<path d="M170.178 5C167.51 5 165.376 7.13415 165.376 9.80183C165.376 12.4695 167.564 14.6037 170.178 14.6037C172.846 14.6037 174.98 12.4695 174.98 9.80183C175.033 7.1875 172.846 5 170.178 5Z" fill="#344169"/>
<path d="M194.401 15.7236C189.972 15.7236 187.518 17.6977 186.504 18.9249V17.1108C186.504 16.684 186.131 16.3105 185.704 16.3105H178.714C178.288 16.3105 177.914 16.684 177.914 17.1108V38.5056C177.914 38.9324 178.288 39.3059 178.714 39.3059H185.704C186.131 39.3059 186.504 38.9324 186.504 38.5056V25.1139C187.038 24.4736 188.105 23.2998 190.186 23.2998C192.427 23.2998 193.547 24.4203 193.547 26.6077V38.559C193.547 38.9858 193.921 39.3593 194.348 39.3593H201.337C201.764 39.3593 202.138 38.9858 202.138 38.559V23.0331C202.084 18.4447 199.203 15.7236 194.401 15.7236Z" fill="#344169"/>
<path d="M109.512 15.6172C102.79 15.6172 97.3473 21.0593 97.3473 27.7818C97.3473 34.5044 102.79 39.9465 109.512 39.9465C116.235 39.9465 121.677 34.5044 121.677 27.7818C121.624 21.0593 116.182 15.6172 109.512 15.6172ZM109.512 31.7834C107.218 31.7834 105.351 29.916 105.351 27.6218C105.351 25.3276 107.218 23.4602 109.512 23.4602C111.807 23.4602 113.674 25.3276 113.674 27.6218C113.621 29.916 111.807 31.7834 109.512 31.7834Z" fill="#344169"/>
<path d="M216.757 15.6709C210.034 15.6709 204.592 21.113 204.592 27.8355C204.592 34.5581 210.034 40.0002 216.757 40.0002C223.48 40.0002 228.922 34.5581 228.922 27.8355C228.922 21.113 223.48 15.6709 216.757 15.6709ZM216.757 31.7837C214.463 31.7837 212.595 29.9163 212.595 27.6221C212.595 25.3279 214.463 23.4605 216.757 23.4605C219.051 23.4605 220.919 25.3279 220.919 27.6221C220.919 29.9163 219.051 31.7837 216.757 31.7837Z" fill="#344169"/>
<path d="M235.645 8.89505C235.645 8.8417 235.645 8.8417 235.645 8.89505C235.645 8.8417 235.645 8.8417 235.645 8.8417C235.111 6.44078 232.497 4.73347 229.936 5.26701C227.322 5.80054 225.614 8.20147 226.148 10.6557C226.575 12.6832 228.335 14.0703 230.416 14.1771C230.309 14.9774 229.562 15.7243 228.976 16.0977C228.549 16.3112 228.815 16.738 228.815 16.738L229.349 17.5383C229.509 17.8051 229.723 17.9651 229.989 17.8051C235.272 15.5642 236.179 11.0292 235.645 8.89505Z" fill="#344169"/>
<path d="M241.834 23.1402C241.834 22.2865 242.901 21.913 244.342 21.913C247.116 21.913 248.717 22.7133 250.478 23.8871C250.638 23.9938 250.905 24.0472 251.118 23.9938C251.332 23.9405 251.545 23.7804 251.652 23.6203L253.999 19.5121C254.213 19.1386 254.106 18.6584 253.733 18.445C251.812 17.2712 248.984 15.7773 244.022 15.7773C236.926 15.7773 233.137 19.1386 233.778 23.9405C234.898 32.3703 248.024 29.4892 247.81 32.3703C247.757 33.0105 246.583 33.5441 244.609 33.5441C241.994 33.5441 239.06 32.2636 237.192 31.0898C237.032 30.9831 236.765 30.9297 236.552 30.9831C236.339 31.0364 236.179 31.1965 236.072 31.3566L233.351 35.8916C233.137 36.2651 233.244 36.7453 233.617 36.9587C236.232 38.7194 240.447 39.8932 244.129 39.8932C251.225 39.8932 255.333 36.852 255.333 31.8368C255.227 22.5533 241.888 25.4344 241.834 23.1402Z" fill="#344169"/>
<path d="M54.0584 15.9398L39.1001 0.96759C38.4896 0.356478 37.6246 0 36.7597 0C35.8439 0 35.0298 0.356478 34.4193 0.96759L21.8523 13.4954L0.99213 34.375C-0.33071 35.6991 -0.33071 37.787 0.99213 39.1111L15.8995 54.0324C16.5101 54.6435 17.375 55 18.2399 55C19.1557 55 19.9698 54.6435 20.5803 54.0324L39.2527 35.3426L53.9566 20.625C55.3303 19.3519 55.3303 17.213 54.0584 15.9398Z" fill="white"/>
<path d="M52.9899 16.958L38.0317 2.03668C37.3194 1.32371 36.1491 1.32371 35.4368 2.03668L19.3083 18.1802L36.8615 35.7497L52.9899 19.6062C53.7022 18.8423 53.7022 17.7219 52.9899 16.958ZM39.8632 21.2867C38.9983 22.1525 37.9298 22.5599 36.8105 22.5599C35.6912 22.5599 34.6227 22.1525 33.7578 21.2867C32.893 20.421 32.4858 19.3515 32.4858 18.2312C32.4858 17.1108 32.893 15.9904 33.7578 15.1756C34.6227 14.3099 35.6912 13.9025 36.8105 13.9025C37.9298 13.9025 38.9983 14.3099 39.8632 15.1756C40.7281 16.0413 41.1353 17.1108 41.1353 18.2312C41.1353 19.3515 40.6773 20.4719 39.8632 21.2867Z" fill="#344169"/>
<path d="M2.11149 35.3935C1.3992 36.1065 1.3992 37.2778 2.11149 37.9908L17.0189 52.963C17.3751 53.3195 17.833 53.5232 18.3418 53.5232C18.7997 53.5232 19.3084 53.3195 19.6646 52.963L35.7931 36.8194L18.24 19.25L2.11149 35.3935ZM15.0347 39.7222C14.1697 40.537 13.1013 40.9954 11.9819 40.9954C10.8626 40.9954 9.74326 40.588 8.92921 39.7222C8.06427 38.8565 7.65725 37.787 7.65725 36.6667C7.65725 35.5463 8.06427 34.4259 8.92921 33.6111C9.79414 32.7454 10.8626 32.338 11.9819 32.338C13.1013 32.338 14.2206 32.7454 15.0347 33.6111C15.8996 34.4769 16.3066 35.5463 16.3066 36.6667C16.3066 37.787 15.8487 38.8565 15.0347 39.7222ZM21.598 33.7639C22.4629 32.8981 23.5314 32.4907 24.6507 32.4907C25.77 32.4907 26.8893 32.8981 27.7034 33.7639C28.5683 34.6296 28.9754 35.6991 28.9754 36.8194C28.9754 37.9398 28.5683 39.0093 27.7034 39.875C26.8385 40.7407 25.77 41.1481 24.6507 41.1481C23.5314 41.1481 22.4629 40.7407 21.598 39.875C20.733 39.0093 20.326 37.9398 20.326 36.8194C20.326 35.75 20.733 34.6296 21.598 33.7639Z" fill="#344169"/>
</g>
<defs>
<clipPath id="clip0_59_415">
<rect width="256" height="55" fill="white"/>
</clipPath>
</defs>
</svg>
