<svg width="48" height="48" viewBox="0 0 48 48" fill="none" xmlns="http://www.w3.org/2000/svg">
<path d="M10 46C8.9 46 7.95867 45.6087 7.176 44.826C6.39333 44.0433 6.00133 43.1013 6 42V32C6 29.2333 6.97533 26.8753 8.926 24.926C10.8767 22.9767 13.2347 22.0013 16 22H18V6C18 4.9 18.392 3.95867 19.176 3.176C19.96 2.39333 20.9013 2.00133 22 2H26C27.1 2 28.042 2.392 28.826 3.176C29.61 3.96 30.0013 4.90133 30 6V22H32C34.7667 22 37.1253 22.9753 39.076 24.926C41.0267 26.8767 42.0013 29.2347 42 32V42C42 43.1 41.6087 44.042 40.826 44.826C40.0433 45.61 39.1013 46.0013 38 46H10ZM10 42H14V36C14 35.4333 14.192 34.9587 14.576 34.576C14.96 34.1933 15.4347 34.0013 16 34C16.5667 34 17.042 34.192 17.426 34.576C17.81 34.96 18.0013 35.4347 18 36V42H22V36C22 35.4333 22.192 34.9587 22.576 34.576C22.96 34.1933 23.4347 34.0013 24 34C24.5667 34 25.042 34.192 25.426 34.576C25.81 34.96 26.0013 35.4347 26 36V42H30V36C30 35.4333 30.192 34.9587 30.576 34.576C30.96 34.1933 31.4347 34.0013 32 34C32.5667 34 33.042 34.192 33.426 34.576C33.81 34.96 34.0013 35.4347 34 36V42H38V32C38 30.3333 37.4167 28.9167 36.25 27.75C35.0833 26.5833 33.6667 26 32 26H16C14.3333 26 12.9167 26.5833 11.75 27.75C10.5833 28.9167 10 30.3333 10 32V42ZM26 22V6H22V22H26Z" fill="white"/>
</svg>
