<svg xmlns="http://www.w3.org/2000/svg" width="61" height="31" fill="none" viewBox="0 0 61 31"><g clip-path="url(#clip0_59_387)"><mask id="mask0_59_387" style="mask-type:luminance" width="61" height="31" x="0" y="0" maskUnits="userSpaceOnUse"><path fill="#fff" d="M60.8086 0.5H0.808594V30.5H60.8086V0.5Z"/></mask><g mask="url(#mask0_59_387)"><path fill="#344169" d="M30.8086 0.5C14.2386 0.5 0.808594 7.22 0.808594 15.5C0.808594 23.78 14.2386 30.5 30.8086 30.5C47.3786 30.5 60.8086 23.78 60.8086 15.5C60.8086 7.22 47.3786 0.5 30.8086 0.5ZM30.8086 28.13C15.5486 28.13 3.17859 22.47 3.17859 15.5C3.17859 8.53 15.5486 2.87 30.8086 2.87C46.0686 2.87 58.4386 8.52 58.4386 15.5C58.4386 22.48 46.0686 28.13 30.8086 28.13ZM27.0286 12.87V10.5H35.4886V12.87H32.4386V20.5H30.0686V12.87H27.0286ZM45.7086 10.5V20.5H43.3386L39.0386 14.55V20.5H36.6686V10.5H39.0386L43.3386 16.45V10.5H45.7086ZM15.8386 20.5V10.5H18.2086L20.8386 14.55L23.4686 10.5H25.8386V20.5H23.4686V14.84L21.6686 17.6H20.0086L18.2086 14.84V20.5H15.8386Z"/></g></g><defs><clipPath id="clip0_59_387"><rect width="61" height="30" fill="#fff" transform="translate(0 0.5)"/></clipPath></defs></svg>