<svg width="175" height="35" viewBox="0 0 175 35" fill="none" xmlns="http://www.w3.org/2000/svg">
<g clip-path="url(#clip0_59_393)">
<mask id="mask0_59_393" style="mask-type:luminance" maskUnits="userSpaceOnUse" x="0" y="0" width="175" height="34">
<path d="M175 0.5H0V33.7459H175V0.5Z" fill="white"/>
</mask>
<g mask="url(#mask0_59_393)">
<path d="M46.8338 27.4608V33.7456H42.8921V13.2861H46.8338V14.265C48.0077 13.5017 49.3753 13.0899 50.7755 13.0781C55.2515 13.0781 58.5428 16.6365 58.5428 20.876C58.5428 25.1155 55.2821 28.674 50.7755 28.674C49.3693 28.6763 47.9953 28.2535 46.8338 27.4608ZM46.8338 19.0103V22.6279C47.1447 23.2899 47.6279 23.8562 48.2328 24.2674C48.8377 24.6786 49.542 24.9196 50.272 24.9652C51.002 25.0108 51.7308 24.8594 52.3822 24.5266C53.0336 24.1939 53.5835 23.6922 53.9744 23.074C54.3654 22.4559 54.5829 21.7439 54.6043 21.0128C54.6257 20.2817 54.4501 19.5583 54.096 18.9183C53.7419 18.2784 53.2222 17.7454 52.5914 17.3751C51.9606 17.0049 51.2419 16.8111 50.5105 16.8139C49.7543 16.8032 49.01 17.003 48.3607 17.3908C47.7115 17.7787 47.1828 18.3394 46.8338 19.0103Z" fill="#344169"/>
<path d="M60.6778 9.16226C60.6649 8.86389 60.7132 8.56604 60.8197 8.28702C60.9262 8.008 61.0886 7.75371 61.297 7.53978C61.5054 7.32585 61.7553 7.15681 62.0315 7.04305C62.3076 6.92929 62.6041 6.87322 62.9027 6.87827C63.2054 6.87302 63.5061 6.9283 63.7872 7.04086C64.0683 7.15342 64.324 7.32101 64.5394 7.53377C64.7548 7.74653 64.9256 8.00018 65.0416 8.27983C65.1576 8.55948 65.2166 8.8595 65.2151 9.16226C65.2088 9.77118 64.9623 10.353 64.5292 10.7811C64.0962 11.2092 63.5116 11.449 62.9027 11.4484C62.6057 11.447 62.312 11.3865 62.0387 11.2704C61.7653 11.1542 61.5179 10.9848 61.3108 10.7719C61.1036 10.5591 60.941 10.3072 60.8323 10.0308C60.7237 9.75443 60.6711 9.45917 60.6778 9.16226ZM60.9165 13.2857H64.9195V28.4371H60.9165V13.2857Z" fill="#344169"/>
<path d="M67.2891 20.8187C67.2811 19.7989 67.477 18.7878 67.8654 17.8449C68.2537 16.9019 68.8267 16.0461 69.5505 15.3278C70.2744 14.6094 71.1345 14.043 72.0804 13.6619C73.0263 13.2807 74.0389 13.0925 75.0586 13.1083C76.4527 13.109 77.825 13.4551 79.0528 14.1156V13.2857H82.9682V27.5765C82.9682 31.5182 79.5564 33.6555 75.2885 33.6555C72.5008 33.6555 69.8314 32.8255 68.0818 31.4656L69.7132 28.6495C71.376 29.7148 73.3138 30.2712 75.2885 30.2503C78.0455 30.2503 78.9061 29.1554 79.0243 27.375C77.8367 28.1347 76.4595 28.5452 75.0498 28.5597C70.5125 28.5553 67.2891 25.1764 67.2891 20.8187ZM79.0528 22.507V19.1281C78.7216 18.4231 78.1977 17.8262 77.5417 17.4061C76.8857 16.9861 76.1243 16.7602 75.3454 16.7544C74.8075 16.7492 74.2739 16.8503 73.7753 17.052C73.2767 17.2537 72.8227 17.552 72.4397 17.9297C72.0567 18.3074 71.7523 18.7571 71.5436 19.2529C71.335 19.7487 71.2265 20.2808 71.2242 20.8187C71.2242 23.1596 73.0023 24.791 75.3169 24.791C76.0936 24.8113 76.8596 24.6064 77.5224 24.2012C78.1853 23.7959 78.7168 23.2076 79.0528 22.507Z" fill="#344169"/>
<path d="M85.3442 20.8187C85.3362 19.7989 85.5322 18.7878 85.9205 17.8449C86.3089 16.9019 86.8818 16.0461 87.6057 15.3278C88.3296 14.6094 89.1897 14.043 90.1356 13.6619C91.0815 13.2807 92.0941 13.0925 93.1137 13.1083C94.5108 13.1078 95.8863 13.4539 97.1167 14.1156V13.2857H101.03V27.5765C101.03 31.5182 97.6204 33.6555 93.3524 33.6555C90.5648 33.6555 87.8954 32.8255 86.1457 31.4656L87.7771 28.6495C89.4398 29.7151 91.3777 30.2715 93.3524 30.2503C96.1094 30.2503 96.97 29.1554 97.0883 27.375C95.9005 28.1344 94.5234 28.5448 93.1137 28.5597C88.5764 28.5553 85.3442 25.1764 85.3442 20.8187ZM97.1167 22.507V19.1281C96.7853 18.4233 96.2614 17.8265 95.6055 17.4065C94.9495 16.9865 94.1882 16.7604 93.4094 16.7544C92.8715 16.7492 92.3379 16.8503 91.8393 17.052C91.3406 17.2537 90.8867 17.552 90.5038 17.9297C90.1208 18.3074 89.8162 18.7571 89.6076 19.2529C89.399 19.7487 89.2904 20.2808 89.2881 20.8187C89.2881 23.1596 91.0662 24.791 93.3809 24.791C94.1575 24.811 94.9233 24.606 95.5861 24.2008C96.249 23.7956 96.7805 23.2074 97.1167 22.507Z" fill="#344169"/>
<path d="M106.78 13.2861L110.755 23.3965L114.845 13.2861H119.006L110.28 33.7456H106.574L108.764 28.2908L102.394 13.2861H106.78Z" fill="#344169"/>
<path d="M118.251 13.2861H122.49L126.353 23.5169L130.179 13.2861H134.339L128.26 28.4375H124.273L118.251 13.2861Z" fill="#344169"/>
<path d="M134.62 20.758C134.62 16.49 137.672 12.96 142.446 12.96C146.865 12.96 150.222 16.282 150.303 20.6463C150.334 21.0216 150.334 21.3988 150.303 21.7741H138.355C138.474 23.9092 140.519 25.3019 142.713 25.3019C144.522 25.3019 145.588 24.7982 146.834 23.769L149 26.053C147.248 27.8903 145.496 28.7509 142.713 28.7509C137.585 28.7356 134.62 24.9099 134.62 20.758ZM138.561 18.9492H146.213C145.827 17.528 144.461 16.282 142.387 16.282C139.985 16.282 138.977 17.4974 138.561 18.9492Z" fill="#344169"/>
<path d="M151.131 26.8086L153.069 23.664C154.808 24.8234 156.847 25.4518 158.938 25.4728C160.926 25.4728 161.933 24.9691 161.933 24.1107C161.933 23.5457 161.458 23.1319 160.451 22.9238L156.29 22.0347C153.237 21.3778 151.843 19.9303 151.843 17.5587C151.843 15.0383 153.978 12.9316 158.397 12.9316C161.064 12.9316 163.433 13.7046 165.067 14.712L163.258 17.7361C161.925 17.0244 160.146 16.2536 158.276 16.2536C156.588 16.2536 155.609 16.6697 155.609 17.4383C155.609 17.9442 155.966 18.2704 156.943 18.4478L160.446 19.1048C164.241 19.8449 165.702 21.5355 165.702 23.8195C165.702 27.1042 162.417 28.8298 158.822 28.8298C156.12 28.882 153.457 28.1822 151.131 26.8086Z" fill="#344169"/>
<path d="M166.49 13.286H168.744V9.1056L172.685 6.55664V13.286H174.998V16.7262H172.687V28.4396H168.746V16.7262H166.488V13.286H166.49Z" fill="#344169"/>
<path d="M33.0226 15.7233C32.9568 14.7615 32.7992 13.8082 32.5518 12.8765C31.424 8.71586 29.048 5.44207 25.4261 3.10553C23.1447 1.62181 20.5242 0.74105 17.8099 0.545625C16.6695 0.46233 15.5236 0.493141 14.3893 0.637598C13.1944 0.795759 12.0198 1.08133 10.8856 1.48944C7.86544 2.57887 5.22954 4.52731 3.30215 7.09509C1.37475 9.66288 0.239915 12.738 0.0372271 15.9423C0 16.5313 0 17.1248 0 17.716V32.09C0 32.4635 0.148349 32.8216 0.412411 33.0857C0.676473 33.3498 1.03462 33.4981 1.40806 33.4981H6.96146C7.309 33.496 7.64366 33.3664 7.90199 33.1339C8.16032 32.9014 8.32434 32.5822 8.36295 32.2368C8.39949 32.1018 8.41862 31.9627 8.41988 31.8229V31.49C8.41661 31.4646 8.41661 31.4388 8.41988 31.4134V31.3762C8.45776 31.3862 8.49342 31.4033 8.52499 31.4265C10.6022 32.5752 12.9027 33.2624 15.2697 33.4412C16.2177 33.5113 17.17 33.5018 18.1164 33.4127C20.3445 33.2075 22.5069 32.5483 24.4706 31.4757C26.4342 30.4031 28.1575 28.9399 29.5342 27.1761C31.4965 24.7076 32.6973 21.7209 32.9897 18.581C33.0888 17.6315 33.0998 16.6748 33.0226 15.7233ZM19.4895 24.9074C19.4797 24.958 19.4523 25.0036 19.4123 25.036C19.3722 25.0684 19.322 25.0857 19.2705 25.0848H13.7959C13.7444 25.0857 13.6941 25.0684 13.6541 25.036C13.614 25.0036 13.5867 24.958 13.5769 24.9074V24.8724V24.6687C13.5757 24.4174 13.6036 24.1668 13.6601 23.922C13.6952 23.8388 13.7171 23.7402 13.7521 23.6483C13.7871 23.5563 13.8222 23.4709 13.8572 23.3811C13.8923 23.2913 13.9492 23.2103 13.9974 23.1337L14.0762 23.0154C14.1277 22.9389 14.184 22.8657 14.2448 22.7964C14.3083 22.7176 14.3718 22.6497 14.4353 22.5774C14.7648 22.2534 15.1651 22.0105 15.6047 21.8679C15.2261 21.6618 14.9268 21.3355 14.754 20.9404C14.5812 20.5454 14.5448 20.1042 14.6504 19.6862C14.756 19.2682 14.9977 18.8972 15.3374 18.6317C15.6771 18.3662 16.0955 18.2212 16.5266 18.2197C17.0414 18.2236 17.5342 18.4287 17.8996 18.7912C18.1112 19.0041 18.2705 19.2633 18.365 19.5482C18.4594 19.8331 18.4865 20.136 18.4441 20.4332C18.4016 20.7303 18.2908 21.0136 18.1203 21.2606C17.9499 21.5077 17.7244 21.7118 17.4617 21.857C18.053 22.0519 18.5676 22.4288 18.9318 22.9338C19.296 23.4388 19.4912 24.0461 19.4895 24.6687C19.4895 24.7476 19.4895 24.833 19.4895 24.9074ZM28.9276 12.9816H4.14753C4.10108 12.9813 4.05537 12.97 4.01416 12.9485C3.97295 12.9271 3.93741 12.8962 3.91048 12.8584C3.88354 12.8205 3.86597 12.7768 3.85921 12.7309C3.85246 12.6849 3.85671 12.638 3.87161 12.594C4.79624 9.9737 6.51088 7.70466 8.77918 6.09968C11.0475 4.4947 13.7578 3.63281 16.5365 3.63281C19.3152 3.63281 22.0255 4.4947 24.2938 6.09968C26.5621 7.70466 28.2767 9.9737 29.2013 12.594C29.2162 12.6378 29.2205 12.6845 29.2138 12.7303C29.2072 12.7761 29.1898 12.8197 29.1631 12.8575C29.1364 12.8953 29.1012 12.9262 29.0603 12.9478C29.0193 12.9694 28.9739 12.981 28.9276 12.9816Z" fill="#344169"/>
</g>
</g>
<defs>
<clipPath id="clip0_59_393">
<rect width="175" height="34" fill="white" transform="translate(0 0.5)"/>
</clipPath>
</defs>
</svg>
