<svg width="64" height="64" viewBox="0 0 64 64" fill="none" xmlns="http://www.w3.org/2000/svg">
<path d="M18.6667 58.6673V42.6673H8V32.0006L29.3333 22.534V20.8007C27.7333 20.2229 26.4444 19.2558 25.4667 17.8993C24.4889 16.5429 24 15.0211 24 13.334C24 11.1118 24.7778 9.22287 26.3333 7.66732C27.8889 6.11176 29.7778 5.33398 32 5.33398C34.2222 5.33398 36.1111 6.11176 37.6667 7.66732C39.2222 9.22287 40 11.1118 40 13.334H34.6667C34.6667 12.5784 34.4107 11.9455 33.8987 11.4353C33.3867 10.9251 32.7538 10.6691 32 10.6673C31.2444 10.6673 30.6116 10.9233 30.1013 11.4353C29.5911 11.9473 29.3351 12.5802 29.3333 13.334C29.3333 14.0895 29.5893 14.7233 30.1013 15.2353C30.6133 15.7473 31.2462 16.0024 32 16.0007H34.6667V22.534L56 32.0006V42.6673H45.3333V58.6673H18.6667ZM13.3333 37.334H18.6667V34.6673H45.3333V37.334H50.6667V35.4673L32 27.2006L13.3333 35.4673V37.334ZM24 53.334H40V40.0006H24V53.334Z" fill="black"/>
</svg>
