<svg width="64" height="64" viewBox="0 0 64 64" fill="none" xmlns="http://www.w3.org/2000/svg">
<path d="M18.6667 58.6663V42.6663H8V31.9997L29.3333 22.533V20.7997C27.7333 20.2219 26.4444 19.2548 25.4667 17.8983C24.4889 16.5419 24 15.0201 24 13.333C24 11.1108 24.7778 9.2219 26.3333 7.66634C27.8889 6.11079 29.7778 5.33301 32 5.33301C34.2222 5.33301 36.1111 6.11079 37.6667 7.66634C39.2222 9.2219 40 11.1108 40 13.333H34.6667C34.6667 12.5775 34.4107 11.9446 33.8987 11.4343C33.3867 10.9241 32.7538 10.6681 32 10.6663C31.2444 10.6663 30.6116 10.9223 30.1013 11.4343C29.5911 11.9463 29.3351 12.5792 29.3333 13.333C29.3333 14.0886 29.5893 14.7223 30.1013 15.2343C30.6133 15.7463 31.2462 16.0015 32 15.9997H34.6667V22.533L56 31.9997V42.6663H45.3333V58.6663H18.6667ZM13.3333 37.333H18.6667V34.6663H45.3333V37.333H50.6667V35.4663L32 27.1997L13.3333 35.4663V37.333ZM24 53.333H40V39.9997H24V53.333Z" fill="white"/>
</svg>
