<svg width="64" height="64" viewBox="0 0 64 64" fill="none" xmlns="http://www.w3.org/2000/svg">
<path d="M23.3334 61.3327C22.0001 61.3327 20.8338 60.8989 19.8347 60.0313C18.8356 59.1638 18.2463 58.0642 18.0667 56.7327L13.7334 24.3327C13.6445 23.5327 13.8667 22.8331 14.4001 22.234C14.9334 21.6349 15.6001 21.3345 16.4001 21.3327H47.6001C48.4001 21.3327 49.0667 21.6331 49.6001 22.234C50.1334 22.8349 50.3556 23.5345 50.2667 24.3327L45.9334 56.7327C45.7556 58.066 45.1663 59.1665 44.1654 60.034C43.1645 60.9016 41.9983 61.3345 40.6667 61.3327H23.3334ZM23.3334 55.9994H40.6667L44.5334 26.666H19.4001L23.3334 55.9994ZM32.0001 42.666C34.2223 42.666 36.1112 41.8882 37.6667 40.3327C39.2223 38.7771 40.0001 36.8882 40.0001 34.666V31.9993C40.0001 31.2438 39.7441 30.6109 39.2321 30.1007C38.7201 29.5905 38.0872 29.3345 37.3334 29.3327C36.5778 29.3327 35.945 29.5887 35.4347 30.1007C34.9245 30.6127 34.6685 31.2456 34.6667 31.9993V34.666C34.6667 35.4216 34.4107 36.0554 33.8987 36.5674C33.3867 37.0793 32.7538 37.3345 32.0001 37.3327C31.2445 37.3327 30.6116 37.0767 30.1014 36.5647C29.5912 36.0527 29.3352 35.4198 29.3334 34.666V31.9993C29.3334 31.2438 29.0774 30.6109 28.5654 30.1007C28.0534 29.5905 27.4205 29.3345 26.6667 29.3327C25.9112 29.3327 25.2783 29.5887 24.7681 30.1007C24.2578 30.6127 24.0018 31.2456 24.0001 31.9993V34.666C24.0001 36.8882 24.7778 38.7771 26.3334 40.3327C27.889 41.8882 29.7778 42.666 32.0001 42.666ZM40.0001 18.666C38.889 18.666 37.945 18.2776 37.1681 17.5007C36.3912 16.7238 36.0018 15.7789 36.0001 14.666C36.0001 13.5549 36.3894 12.6109 37.1681 11.834C37.9467 11.0571 38.8907 10.6678 40.0001 10.666C41.1112 10.666 42.0561 11.0553 42.8347 11.834C43.6134 12.6127 44.0018 13.5567 44.0001 14.666C44.0001 15.7771 43.6116 16.722 42.8347 17.5007C42.0578 18.2794 41.113 18.6678 40.0001 18.666ZM26.6667 15.9993C24.8001 15.9993 23.2223 15.3549 21.9334 14.066C20.6445 12.7771 20.0001 11.1993 20.0001 9.33268C20.0001 7.46602 20.6445 5.88824 21.9334 4.59935C23.2223 3.31046 24.8001 2.66602 26.6667 2.66602C28.5334 2.66602 30.1112 3.31046 31.4001 4.59935C32.689 5.88824 33.3334 7.46602 33.3334 9.33268C33.3334 11.1993 32.689 12.7771 31.4001 14.066C30.1112 15.3549 28.5334 15.9993 26.6667 15.9993Z" fill="black"/>
</svg>
