<svg width="100" height="100" viewBox="0 0 100 100" fill="none" xmlns="http://www.w3.org/2000/svg">
<path d="M74.8167 86.5513L86.0042 46.968C86.1794 46.3479 86.2085 45.6957 86.0891 45.0625C85.9697 44.4293 85.705 43.8324 85.316 43.3188C84.9269 42.8051 84.424 42.3888 83.8469 42.1023C83.2697 41.8159 82.6339 41.6672 81.9896 41.668H58.0729C57.7301 41.668 57.3916 41.5906 57.0828 41.4417C56.774 41.2927 56.5027 41.076 56.2893 40.8077C56.0758 40.5394 55.9256 40.2264 55.85 39.892C55.7743 39.5576 55.775 39.2104 55.8521 38.8763L56.8938 34.368C57.8479 30.2326 58.1542 25.9721 57.8021 21.743L57.6104 19.4451C57.4051 16.9798 56.3326 14.6672 54.5833 12.918C52.9833 11.3176 50.8131 10.4183 48.55 10.418H48.05C46.6813 10.418 45.4208 11.1596 44.7583 12.3555L39.2188 22.3242C36.7354 26.7951 33.0335 30.4688 28.5438 32.918L14.6708 40.4805C14.0131 40.8394 13.4644 41.369 13.0823 42.0135C12.7003 42.6581 12.4991 43.3937 12.5 44.143V85.418C12.5 86.523 12.939 87.5828 13.7204 88.3642C14.5018 89.1456 15.5616 89.5846 16.6667 89.5846H70.8063C71.7135 89.5844 72.5959 89.288 73.3194 88.7405C74.0428 88.193 74.5699 87.4244 74.8167 86.5513Z" stroke="white" stroke-width="4" stroke-linecap="round" stroke-linejoin="round"/>
</svg>
