<svg xmlns="http://www.w3.org/2000/svg" width="25" height="24" fill="none" viewBox="0 0 25 24"><g clip-path="url(#clip0_705_3419)"><path fill="#6A7C94" d="M15.8024 21V14.034H18.1354L18.4844 11.326H15.8024V9.598C15.8024 8.814 16.0204 8.279 17.1444 8.279H18.5784V5.857C17.8842 5.78334 17.1865 5.74762 16.4884 5.75C14.4214 5.75 13.0064 7.012 13.0064 9.33V11.326H10.6684V14.034H13.0064V21H4.40039C4.13517 21 3.88082 20.8946 3.69328 20.7071C3.50575 20.5196 3.40039 20.2652 3.40039 20V4C3.40039 3.73478 3.50575 3.48043 3.69328 3.29289C3.88082 3.10536 4.13517 3 4.40039 3H20.4004C20.6656 3 20.92 3.10536 21.1075 3.29289C21.295 3.48043 21.4004 3.73478 21.4004 4V20C21.4004 20.2652 21.295 20.5196 21.1075 20.7071C20.92 20.8946 20.6656 21 20.4004 21H15.8024Z"/></g><defs><clipPath id="clip0_705_3419"><rect width="24" height="24" fill="#fff" transform="translate(0.400391)"/></clipPath></defs></svg>