<svg width="25" height="24" viewBox="0 0 25 24" fill="none" xmlns="http://www.w3.org/2000/svg">
<g clip-path="url(#clip0_705_3416)">
<path d="M22.5627 5.65495C21.7992 5.99264 20.9896 6.21442 20.1607 6.31295C21.0344 5.79038 21.6884 4.96796 22.0007 3.99895C21.1807 4.48695 20.2817 4.82895 19.3447 5.01395C18.7153 4.34053 17.881 3.89391 16.9716 3.74353C16.0622 3.59316 15.1286 3.74744 14.316 4.1824C13.5033 4.61737 12.8571 5.30863 12.4778 6.14874C12.0985 6.98885 12.0074 7.93073 12.2187 8.82795C10.5558 8.7446 8.92902 8.31247 7.44397 7.55961C5.95893 6.80675 4.64882 5.75 3.59869 4.45795C3.22698 5.0964 3.03164 5.82218 3.03269 6.56095C3.03269 8.01095 3.77069 9.29195 4.89269 10.042C4.2287 10.021 3.57932 9.84173 2.99869 9.51895V9.57095C2.99889 10.5367 3.33306 11.4726 3.94454 12.22C4.55601 12.9675 5.40717 13.4804 6.35369 13.672C5.7373 13.839 5.09099 13.8636 4.46369 13.7439C4.73055 14.5752 5.25069 15.3021 5.95128 15.8231C6.65186 16.344 7.49782 16.6327 8.37069 16.6489C7.50317 17.3303 6.50986 17.8339 5.44757 18.1311C4.38527 18.4283 3.27481 18.5132 2.17969 18.3809C4.09139 19.6104 6.31678 20.2631 8.58969 20.2609C16.2827 20.2609 20.4897 13.888 20.4897 8.36095C20.4897 8.18095 20.4847 7.99895 20.4767 7.82095C21.2956 7.22912 22.0023 6.49597 22.5637 5.65595L22.5627 5.65495Z" fill="#6A7C94"/>
</g>
<defs>
<clipPath id="clip0_705_3416">
<rect width="24" height="24" fill="white" transform="translate(0.400391)"/>
</clipPath>
</defs>
</svg>
