<svg xmlns="http://www.w3.org/2000/svg" width="25" height="24" fill="none" viewBox="0 0 25 24"><g clip-path="url(#clip0_705_3422)"><path fill="#6A7C94" d="M18.7354 18.339H16.0704V14.162C16.0704 13.166 16.0504 11.884 14.6804 11.884C13.2914 11.884 13.0794 12.968 13.0794 14.089V18.339H10.4134V9.75H12.9734V10.92H13.0084C13.3664 10.246 14.2364 9.533 15.5364 9.533C18.2364 9.533 18.7364 11.311 18.7364 13.624V18.339H18.7354ZM7.40339 8.575C7.19995 8.57526 6.99845 8.53537 6.81045 8.45761C6.62246 8.37984 6.45166 8.26574 6.30785 8.12184C6.16404 7.97793 6.05004 7.80706 5.9724 7.61901C5.89476 7.43097 5.855 7.22944 5.85539 7.026C5.85559 6.71983 5.94657 6.4206 6.11683 6.16615C6.28709 5.91169 6.52899 5.71343 6.81192 5.59645C7.09486 5.47947 7.40613 5.44902 7.70637 5.50894C8.00661 5.56886 8.28235 5.71648 8.4987 5.93311C8.71505 6.14974 8.8623 6.42566 8.92184 6.72598C8.98138 7.0263 8.95052 7.33753 8.83317 7.62032C8.71583 7.9031 8.51726 8.14474 8.26258 8.31467C8.0079 8.4846 7.70856 8.5752 7.40239 8.575H7.40339ZM8.73939 18.339H6.06639V9.75H8.74039V18.339H8.73939ZM20.0704 3H4.72939C3.99339 3 3.40039 3.58 3.40039 4.297V19.703C3.40039 20.42 3.99439 21 4.72839 21H20.0664C20.8004 21 21.4004 20.42 21.4004 19.703V4.297C21.4004 3.58 20.8004 3 20.0664 3H20.0694H20.0704Z"/></g><defs><clipPath id="clip0_705_3422"><rect width="24" height="24" fill="#fff" transform="translate(0.400391)"/></clipPath></defs></svg>