<svg width="64" height="64" viewBox="0 0 64 64" fill="none" xmlns="http://www.w3.org/2000/svg">
<path d="M23.3334 61.3337C22.0001 61.3337 20.8338 60.8999 19.8347 60.0323C18.8356 59.1648 18.2463 58.0652 18.0667 56.7337L13.7334 24.3337C13.6445 23.5337 13.8667 22.8341 14.4001 22.235C14.9334 21.6359 15.6001 21.3354 16.4001 21.3337H47.6001C48.4001 21.3337 49.0667 21.6341 49.6001 22.235C50.1334 22.8359 50.3556 23.5354 50.2667 24.3337L45.9334 56.7337C45.7556 58.067 45.1663 59.1674 44.1654 60.035C43.1645 60.9025 41.9983 61.3354 40.6667 61.3337H23.3334ZM23.3334 56.0003H40.6667L44.5334 26.667H19.4001L23.3334 56.0003ZM32.0001 42.667C34.2223 42.667 36.1112 41.8892 37.6667 40.3337C39.2223 38.7781 40.0001 36.8892 40.0001 34.667V32.0003C40.0001 31.2448 39.7441 30.6119 39.2321 30.1017C38.7201 29.5914 38.0872 29.3354 37.3334 29.3337C36.5778 29.3337 35.945 29.5897 35.4347 30.1017C34.9245 30.6137 34.6685 31.2465 34.6667 32.0003V34.667C34.6667 35.4226 34.4107 36.0563 33.8987 36.5683C33.3867 37.0803 32.7538 37.3354 32.0001 37.3337C31.2445 37.3337 30.6116 37.0777 30.1014 36.5657C29.5912 36.0537 29.3352 35.4208 29.3334 34.667V32.0003C29.3334 31.2448 29.0774 30.6119 28.5654 30.1017C28.0534 29.5914 27.4205 29.3354 26.6667 29.3337C25.9112 29.3337 25.2783 29.5897 24.7681 30.1017C24.2578 30.6137 24.0018 31.2465 24.0001 32.0003V34.667C24.0001 36.8892 24.7778 38.7781 26.3334 40.3337C27.889 41.8892 29.7778 42.667 32.0001 42.667ZM40.0001 18.667C38.889 18.667 37.945 18.2785 37.1681 17.5017C36.3912 16.7248 36.0018 15.7799 36.0001 14.667C36.0001 13.5559 36.3894 12.6119 37.1681 11.835C37.9467 11.0581 38.8907 10.6688 40.0001 10.667C41.1112 10.667 42.0561 11.0563 42.8347 11.835C43.6134 12.6137 44.0018 13.5577 44.0001 14.667C44.0001 15.7781 43.6116 16.723 42.8347 17.5017C42.0578 18.2803 41.113 18.6688 40.0001 18.667ZM26.6667 16.0003C24.8001 16.0003 23.2223 15.3559 21.9334 14.067C20.6445 12.7781 20.0001 11.2003 20.0001 9.33366C20.0001 7.46699 20.6445 5.88921 21.9334 4.60033C23.2223 3.31144 24.8001 2.66699 26.6667 2.66699C28.5334 2.66699 30.1112 3.31144 31.4001 4.60033C32.689 5.88921 33.3334 7.46699 33.3334 9.33366C33.3334 11.2003 32.689 12.7781 31.4001 14.067C30.1112 15.3559 28.5334 16.0003 26.6667 16.0003Z" fill="white"/>
</svg>
